# xmcd CD database file
#
# Track frame offsets:
#	150
#	23305
#	44982
#	70452
#	95332
#	121725
#	145085
#	169317
#	188932
#	209560
#
# Disc length: 3231 seconds
#
# Revision: 0
# Processed by: cddbd v1.4PL0 Copyright (c) Steve Scherf et al.
# Submitted via: CDex 1.50
#
DISCID=910c9d0a
DTITLE=Otomaro Ruiz - Otomaro Ruiz Plays Ryuichi Sakamoto
DYEAR=1992
DGENRE=Jazz
TTITLE0=A Tribute to N.J.P
TTITLE1=Ballet Mecanique
TTITLE2=Parolibre
TTITLE3=Koodo Kogen
TTITLE4=The Sheltering Sky
TTITLE5=Etude
TTITLE6=Merry Christmas,Mr.Lawrence
TTITLE7=Self Portrait
TTITLE8=After All
TTITLE9=The Last Emperor
EXTD=YEAR: 1992
EXTT0=
EXTT1=
EXTT2=
EXTT3=
EXTT4=
EXTT5=
EXTT6=
EXTT7=
EXTT8=
EXTT9=
PLAYORDER=
